<svg width="24" height="24" viewBox="0 0 24 24" fill="none" xmlns="http://www.w3.org/2000/svg">
<path fill-rule="evenodd" clip-rule="evenodd" d="M7.38978 16.0818C8.49961 15.5705 9.88281 15.2951 11.6959 15.2298C11.8084 15.2258 11.9015 15.3162 11.9015 15.4288V19.2321C11.9015 19.4027 12.1012 19.495 12.2311 19.3845L20.8752 12.0288C20.9691 11.9489 20.9691 11.804 20.8752 11.7242L12.2311 4.3685C12.1012 4.25799 11.9015 4.35029 11.9015 4.52082V8.36358C11.9015 8.47086 11.8163 8.55891 11.7092 8.56462C8.65235 8.72749 6.36808 9.76679 4.91088 11.6601C3.67901 13.2611 3.0542 15.476 3.0542 18.2483V19.4791C3.0542 19.6638 3.28302 19.7498 3.40466 19.6109L4.27093 18.6217C5.24362 17.5119 6.14579 16.6551 7.38978 16.0818ZM4.07869 17.3456C4.91144 16.4654 5.80121 15.7129 6.97122 15.1736C8.24398 14.5872 9.77149 14.2985 11.6599 14.2305C12.3434 14.2058 12.9015 14.7548 12.9015 15.4288V17.5009L19.5111 11.8765L12.9015 6.25201V8.36358C12.9015 9.01355 12.3892 9.5298 11.7624 9.5632C8.9085 9.71526 6.93493 10.6699 5.70335 12.2701C4.77238 13.48 4.20048 15.1593 4.07869 17.3456Z" fill="black"/>
</svg>
