<svg width="24" height="24" viewBox="0 0 24 24" fill="none" xmlns="http://www.w3.org/2000/svg">
<path fill-rule="evenodd" clip-rule="evenodd" d="M13.9998 4.2C13.9998 4.08954 13.9103 4 13.7998 4H10.1998C10.0894 4 9.99985 4.08954 9.99985 4.2V10V10.8C9.99985 10.9105 9.9103 11 9.79985 11H8.99985H6.86009C6.68521 11 6.59456 11.2086 6.71388 11.3365L11.8536 16.8433C11.9327 16.9281 12.067 16.9281 12.1461 16.8433L17.2858 11.3365C17.4051 11.2086 17.3145 11 17.1396 11H14.9998H14.1998C14.0894 11 13.9998 10.9105 13.9998 10.8V10V4.2ZM14.7998 3C14.9103 3 14.9998 3.08954 14.9998 3.2V9.8C14.9998 9.91046 15.0894 10 15.1998 10H17.5998C18.4998 10 18.8998 11.1 18.2998 11.7L12.6998 17.7C12.4998 17.9 12.1998 18 11.9998 18C11.7998 18 11.4998 17.9 11.2998 17.7L5.69985 11.7C5.09985 11.1 5.49985 10 6.39985 10H8.79985C8.9103 10 8.99985 9.91046 8.99985 9.8V3.2C8.99985 3.08954 9.08939 3 9.19985 3H14.7998ZM5.2 20H18.8C18.9105 20 19 20.0895 19 20.2V20.8C19 20.9105 18.9105 21 18.8 21H5.2C5.08954 21 5 20.9105 5 20.8V20.2C5 20.0895 5.08954 20 5.2 20Z" fill="black"/>
</svg>
